<svg xmlns="http://www.w3.org/2000/svg">
  <g>
    <path style="fill:#fdfdfc" d="M 0,256 V 0 H 256 512 V 256 512 H 256 0 Z M 76.529163,456.94273 C 82.980337,453.62389 90.02491,445.20947 108.71349,418.5 c 26.40555,-37.73845 35.5099,-49.60824 40.81598,-53.21381 4.84117,-3.28967 15.82831,-7.42494 35.01155,-13.17744 C 193.91108,349.29894 201.85624,347 202.19693,347 c 0.34069,0 -0.97652,3.11062 -2.92713,6.91248 -6.45747,12.58602 -5.1813,20.6879 3.63248,23.06121 5.41512,1.45814 15.50504,-1.33741 38.09772,-10.55547 43.82211,-17.8799 44.78931,-18.10573 60,-14.00895 5.225,1.40727 13.55,3.73685 18.5,5.17684 6.43108,1.87084 11.59501,2.66036 18.09142,2.76602 l 9.09142,0.14787 9.90858,-6.5915 c 5.44972,-3.62533 15.91761,-10.14039 23.26198,-14.47791 17.44406,-10.30232 30.40974,-21.05719 37.55045,-31.14762 7.61145,-10.75563 22.83788,-36.36313 26.53316,-44.62295 6.10179,-13.63889 7.5102,-19.99889 7.45397,-33.66002 -0.0283,-6.875 -0.63119,-19.00888 -1.33974,-26.96417 -0.70856,-7.95529 -0.9982,-17.66543 -0.64364,-21.57808 0.7792,-8.59877 4.3038,-21.96517 8.81195,-33.41771 l 3.33016,-8.45997 6.24047,-1.26305 c 3.43226,-0.69468 7.15766,-1.75392 8.27866,-2.35386 3.11464,-1.66691 5.92326,-7.02694 5.92742,-11.31203 0.006,-5.70603 -2.47501,-9.94906 -9.34224,-15.98005 -4.59665,-4.03692 -8.36478,-8.949943 -14.88998,-19.414097 -4.80478,-7.705199 -10.87978,-16.396207 -13.5,-19.31335 C 437.95581,62.920563 429.42676,57.537725 419.77679,54.489301 412.71636,52.258911 410.19299,52 395.51596,52 c -15.00348,0 -17.37407,0.256103 -28.19395,3.045892 -12.1846,3.141668 -13.49187,3.736016 -21.64688,9.841706 -7.88582,5.904147 -26.03736,30.836651 -33.95541,46.640292 -1.99443,3.98069 -4.53977,7.55112 -5.87044,8.23465 -1.2921,0.66372 -9.54928,3.51286 -18.34928,6.33143 -19.28541,6.17694 -34.1663,13.03405 -41.22115,18.99469 -10.93406,9.23818 -95.52449,105.22196 -123.67737,140.3353 -4.85833,6.05949 -10.64864,12.12263 -13.00308,13.61578 -5.09341,3.23014 -7.0707,7.38539 -6.29512,13.22913 0.40698,3.06643 1.3893,4.92544 3.5686,6.75342 l 3.00705,2.52229 -5.79096,8.08474 c -3.18503,4.44661 -11.149812,14.78658 -17.699512,22.97771 -6.549701,8.19113 -13.909451,17.58424 -16.355001,20.87357 -2.44555,3.28933 -8.96603,11.34699 -14.489955,17.90592 C 32.775505,418.42049 28,425.53757 28,432.43543 c 0,5.78225 6.532021,10.53863 14.5,10.55837 1.767261,0.004 1.961342,0.56217 1.667804,4.79329 -0.604727,8.71664 5.372931,12.41157 19.361359,11.96769 6.312467,-0.20031 9.091966,-0.80154 13,-2.81205 z M 56.25,449.33772 C 55.5625,449.06031 55,448.05993 55,447.11465 c 0,-1.82538 15.606168,-23.06434 33,-44.91082 l 10.5,-13.1879 7,0.007 c 10.12093,0.0106 10.43218,0.49105 5.23063,8.07373 C 108.31486,400.61865 102.16359,409.575 97.061134,417 78.645698,443.7978 72.071655,450.06972 62.554219,449.92105 59.774399,449.87763 56.9375,449.61513 56.25,449.33772 Z M 39.273717,432.25788 C 36.585857,430.40224 44.947809,418.80762 64.16052,397.75 L 72.143912,389 h 8.928044 C 87.087157,389 90,389.37185 90,390.13976 c 0,1.30496 -12.23635,17.60654 -21.924231,29.20802 -8.088921,9.68669 -12.980615,12.73697 -21.365572,13.3228 -3.415608,0.23864 -6.762024,0.0529 -7.43648,-0.4127 z M 259.5,175.47035 c 0.55,-0.20446 14.95,-3.57086 32,-7.48087 17.05,-3.91002 43.47555,-10.2322 58.72344,-14.0493 C 365.47133,150.12308 378.6066,147 379.41292,147 c 0.97626,0 2.34353,2.92331 4.09252,8.75 1.44456,4.8125 3.49679,11.12938 4.56052,14.03751 1.06372,2.90813 1.93404,5.49563 1.93404,5.75 0,0.25437 -29.5875,0.42696 -65.75,0.38354 -36.1625,-0.0434 -65.3,-0.24623 -64.75,-0.4507 z m 131.99856,-11.04132 c -4.87078,-15.19982 -5.36712,-18.89382 -2.72841,-20.30602 1.10387,-0.59077 7.34467,-1.56386 13.86845,-2.1624 6.52377,-0.59855 14.4489,-1.43507 17.6114,-1.85893 L 426,139.33102 V 157.66551 176 h -15.39677 -15.39677 z m -135.84226,4.43844 c -2.96094,-1.72116 -4.83846,-7.25491 -3.58612,-10.56964 1.44034,-3.81231 5.63832,-8.07403 10.32904,-10.48586 11.70448,-6.01811 45.84513,-17.8126 51.55755,-17.81147 1.39878,2.8e-4 4.96588,0.9213 7.9269,2.04672 7.88709,2.9977 32.18957,8.78718 42.36222,10.09177 4.8497,0.62195 8.68306,1.26539 8.51858,1.42987 -1.37067,1.37067 -109.23615,26.47145 -113.45174,26.40073 -0.997,-0.0167 -2.64239,-0.51268 -3.65643,-1.10212 z M 358.95371,136.5067 c -12.40798,-2.47421 -30.62613,-7.67956 -34.53514,-9.86749 -4.93907,-2.76446 -5.29604,-5.04281 -1.93901,-12.37553 C 326.97406,104.4464 343.48997,81 345.91088,81 346.60808,81 374,135.97708 374,137.3764 c 0,1.00325 -7.96138,0.54307 -15.04629,-0.8697 z M 391,134.1971 c 0,-3.2755 5.18807,-14.31817 14.24326,-30.31642 3.54287,-6.259374 8.5473,-15.473944 11.12094,-20.476822 2.57364,-5.002878 5.79455,-10.143819 7.15757,-11.424314 L 426,69.651372 v 32.174318 c 0,17.69587 -0.3375,32.17822 -0.75,32.183 -0.4125,0.005 -6.375,0.67587 -13.25,1.49131 -6.875,0.81544 -14.4125,1.48653 -16.75,1.49131 -3.99121,0.008 -4.25,-0.16198 -4.25,-2.79421 z m -13.52056,-5.22967 c -3.94349,-6.24689 -23.25287,-45.479174 -24.60469,-49.991153 -1.14534,-3.822775 -1.06385,-4.169463 1.64443,-6.996297 5.67433,-5.922719 22.51638,-10.14039 40.98082,-10.262621 14.58517,-0.09655 23.5,1.98117 23.5,5.476995 0,1.176166 -7.27083,14.776096 -16.15739,30.222065 C 383.76102,130.58261 382.27714,133 381,133 c -0.5362,0 -2.12045,-1.81466 -3.52056,-4.03257 z"/>
    <path style="fill:#daf0eb" d="m 51.5,458.54235 c -5.819222,-2.13452 -7.735283,-4.9451 -7.332196,-10.75526 0.293538,-4.23112 0.09946,-4.78891 -1.667804,-4.79329 -7.967979,-0.0197 -14.5,-4.77612 -14.5,-10.55837 0,-6.89786 4.775505,-14.01494 27.543502,-41.04891 5.523925,-6.55893 12.044405,-14.61659 14.489955,-17.90592 2.44555,-3.28933 9.8053,-12.68244 16.355001,-20.87357 6.5497,-8.19113 14.514482,-18.5311 17.699512,-22.97771 l 5.79096,-8.08474 -3.00705,-2.52229 c -2.1793,-1.82798 -3.16162,-3.68699 -3.5686,-6.75342 -0.77558,-5.84374 1.20171,-9.99899 6.29512,-13.22913 2.35444,-1.49315 8.14475,-7.55629 13.00308,-13.61578 28.15288,-35.11334 112.74331,-131.09712 123.67737,-140.3353 7.05485,-5.96064 21.93574,-12.81775 41.22115,-18.99469 8.8,-2.81857 17.05718,-5.66771 18.34928,-6.33143 1.33067,-0.68353 3.87601,-4.25396 5.87044,-8.23465 7.91805,-15.803641 26.06959,-40.736145 33.95541,-46.640292 8.15501,-6.10569 9.46228,-6.700038 21.64688,-9.841706 C 378.14189,52.256103 380.51248,52 395.51596,52 c 14.67703,0 17.2004,0.258911 24.26083,2.489301 9.64997,3.048424 18.17902,8.431262 24.48725,15.454332 2.62022,2.917143 8.69522,11.608151 13.5,19.31335 6.5252,10.464154 10.29333,15.377177 14.88998,19.414097 6.86723,6.03099 9.34778,10.27402 9.34224,15.98005 -0.004,4.28509 -2.81278,9.64512 -5.92742,11.31203 -1.121,0.59994 -4.8464,1.65918 -8.27866,2.35386 l -6.24047,1.26305 -3.33016,8.45997 c -4.50815,11.45254 -8.03275,24.81894 -8.81195,33.41771 -0.35456,3.91265 -0.0649,13.62279 0.64364,21.57808 0.70855,7.95529 1.31144,20.08917 1.33974,26.96417 0.0562,13.66113 -1.35218,20.02113 -7.45397,33.66002 -3.69528,8.25982 -18.92171,33.86732 -26.53316,44.62295 -7.14071,10.09043 -20.10639,20.8453 -37.55045,31.14762 -7.34437,4.33752 -17.81226,10.85258 -23.26198,14.47791 l -9.90858,6.5915 -9.09142,-0.14787 c -6.49641,-0.10566 -11.66034,-0.89518 -18.09142,-2.76602 -4.95,-1.43999 -13.275,-3.76957 -18.5,-5.17684 -15.21069,-4.09678 -16.17789,-3.87095 -60,14.00895 -22.59268,9.21806 -32.6826,12.01361 -38.09772,10.55547 -8.81378,-2.37331 -10.08995,-10.47519 -3.63248,-23.06121 1.95061,-3.80186 3.26782,-6.91248 2.92713,-6.91248 -0.34069,0 -8.28585,2.29894 -17.65591,5.10875 -19.18324,5.7525 -30.17038,9.88777 -35.01155,13.17744 -5.30608,3.60557 -14.41043,15.47536 -40.81598,53.21381 -25.903403,37.02079 -30.013425,40.77338 -45.184327,41.25478 -5.167947,0.16399 -9.454575,-0.26807 -12.029163,-1.21243 z m 20.180345,-5.66839 C 75.960724,451.55084 85.653338,441.03357 95.566514,426.95553 100.0031,420.65499 109.33365,407.4 116.30107,397.5 c 18.16703,-25.81352 25.27605,-34.42188 31.5015,-38.1454 8.16238,-4.88203 63.77867,-22.32752 67.36701,-21.13141 0.57364,0.19122 -1.5268,4.09998 -4.66766,8.68615 -9.83847,14.36576 -12.04231,21.97606 -7.02587,24.2617 3.91206,1.78245 12.33726,-0.82298 43.70852,-13.51651 15.57349,-6.30139 31.17842,-12.01999 34.67763,-12.70798 7.80673,-1.53492 13.04073,-0.69506 32.1378,5.15695 11.21011,3.43516 15.02659,4.15888 22.5,4.26668 l 9,0.12982 8,-5.5984 c 4.4,-3.07913 12.5,-8.20888 18,-11.39946 23.12616,-13.41561 35.00279,-23.31399 43.90009,-36.58785 14.51279,-21.65157 26.33268,-44.40947 29.04049,-55.91429 1.9441,-8.26 1.93779,-13.86259 -0.0434,-38.5 -1.80267,-22.41798 -1.28525,-29.7611 3.18368,-45.18244 3.38979,-11.69745 8.30188,-23.90151 10.37566,-25.77825 0.939,-0.84979 4.37041,-2.03158 7.62535,-2.6262 C 472.98228,131.5612 476,128.98073 476,124.00455 c 0,-3.21703 -0.85443,-4.47141 -7.25,-10.64366 -5.02967,-4.85404 -9.63991,-10.82451 -15.05372,-19.495221 C 439.49709,71.124382 433.55547,65.427115 418.6218,60.2337 c -6.1106,-2.12506 -8.74974,-2.412026 -23.01199,-2.502208 -14.51679,-0.09179 -17.07257,0.160949 -25.84588,2.555893 -11.70808,3.196076 -16.55266,5.554916 -22.3122,10.863875 -8.16652,7.527637 -23.86705,29.71174 -30.79122,43.50653 -1.97603,3.93679 -4.84552,8.01796 -6.37665,9.06927 -1.53112,1.05131 -10.65886,4.50032 -20.28386,7.66446 -22.50059,7.39688 -33.88141,12.78251 -41.21034,19.50154 -4.79877,4.39942 -15.01705,15.39106 -35.88832,38.60445 -27.08436,30.12372 -85.8779,98.84093 -91.76182,107.25016 -1.24981,1.78621 -4.29767,4.64109 -6.77302,6.34418 -2.47534,1.70308 -4.85952,4.06663 -5.29817,5.25233 -0.83137,2.24729 0.58451,6.65582 2.13764,6.65582 0.48672,0 2.00407,1.11913 3.3719,2.48697 2.42633,2.42632 2.44642,2.56652 0.82377,5.75 -2.42191,4.75155 -10.18132,15.28982 -23.387383,31.76303 -6.39331,7.975 -13.616889,17.2 -16.052398,20.5 -2.435509,3.3 -8.710771,11.11068 -13.945028,17.35707 -17.97819,21.45458 -24.043707,29.26245 -26.50374,34.1171 -2.430707,4.79677 -2.438682,4.89615 -0.577276,7.19489 1.737806,2.1461 2.643051,2.33094 11.415744,2.33094 h 9.528266 l -2.006039,3 c -1.103321,1.65 -2.685011,4.52877 -3.514865,6.39727 -1.413258,3.18208 -1.378695,3.5274 0.545666,5.45176 3.36723,3.36723 12.618939,4.0463 20.775758,1.52493 z M 426,157.61504 v -18.38496 l 8.25,-1.17482 c 4.5375,-0.64615 9.96964,-1.43557 12.07143,-1.75427 l 3.82144,-0.57945 -0.70442,3.88923 c -0.38743,2.13908 -2.66548,10.18923 -5.06233,17.88923 -2.39685,7.7 -4.36201,15.0125 -4.36702,16.25 -0.009,2.11818 -0.4192,2.25 -7.0091,2.25 h -7 z m -32.1875,-15.29815 c 0.72187,-0.28887 1.58438,-0.25335 1.91667,0.0789 0.33229,0.33229 -0.25834,0.56864 -1.3125,0.52522 -1.16495,-0.048 -1.4019,-0.28494 -0.60417,-0.60416 z M 426,102 c 0,-30.556673 0.0841,-32 1.86426,-32 3.40946,0 11.73562,9.653236 20.40569,23.658084 6.305,10.184516 10.57216,15.791726 16.14963,21.221226 10.06754,9.80044 10.00382,11.9261 -0.41958,13.99628 C 459.05293,129.85812 429.05308,134 426.88363,134 426.39053,134 426,119.85708 426,102 Z"/>
    <path style="fill:#7196c3" d="m 62.8125,454.31689 c 0.721875,-0.28887 1.584375,-0.25335 1.916667,0.0789 0.332291,0.33229 -0.258334,0.56864 -1.3125,0.52522 -1.164943,-0.048 -1.4019,-0.28494 -0.604167,-0.60416 z m 11.915196,-66.03862 c 1.775232,-0.22091 4.925232,-0.22454 7,-0.008 2.074767,0.21648 0.622304,0.39722 -3.227696,0.40166 -3.85,0.004 -5.547537,-0.17268 -3.772304,-0.39359 z M 115,371.62244 c 0,-0.20765 0.7875,-0.99515 1.75,-1.75 1.58606,-1.24387 1.62143,-1.2085 0.37756,0.37756 C 115.82119,371.91575 115,372.44548 115,371.62244 Z m 14,-21.93535 c 0,-0.1721 1.4625,-1.6346 3.25,-3.25 l 3.25,-2.93709 -2.93709,3.25 C 129.82513,349.77946 129,350.45965 129,349.68709 Z M 150.5,333 c 0.99549,-1.1 2.03498,-2 2.30998,-2 0.275,0 -0.31449,0.9 -1.30998,2 -0.99549,1.1 -2.03498,2 -2.30998,2 -0.275,0 0.31449,-0.9 1.30998,-2 z m -6.5,0.62244 c 0,-0.20765 0.7875,-0.99515 1.75,-1.75 1.58606,-1.24387 1.62143,-1.2085 0.37756,0.37756 C 144.82119,333.91575 144,334.44548 144,333.62244 Z M 163.5,319 c 0.99549,-1.1 2.03498,-2 2.30998,-2 0.275,0 -0.31449,0.9 -1.30998,2 -0.99549,1.1 -2.03498,2 -2.30998,2 -0.275,0 0.31449,-0.9 1.30998,-2 z m 74.5,-2.37756 c 0,-0.20765 0.7875,-0.99515 1.75,-1.75 1.58606,-1.24387 1.62143,-1.2085 0.37756,0.37756 C 238.82119,316.91575 238,317.44548 238,316.62244 Z M 174,307.5 c 1.86578,-1.925 3.61733,-3.5 3.89233,-3.5 0.275,0 -1.02655,1.575 -2.89233,3.5 -1.86578,1.925 -3.61733,3.5 -3.89233,3.5 -0.275,0 1.02655,-1.575 2.89233,-3.5 z m 175.07895,-6.08333 c 0.048,-1.16495 0.28494,-1.4019 0.60416,-0.60417 0.28887,0.72187 0.25335,1.58438 -0.0789,1.91667 -0.33229,0.33229 -0.56864,-0.25834 -0.52522,-1.3125 z M 126,298.11098 c 0,-0.77022 10.32538,-13.89269 11.89003,-15.11098 0.35318,-0.275 1.92213,-2.075 3.48654,-4 1.56442,-1.925 4.48218,-5.31144 6.48391,-7.52543 2.00174,-2.21398 6.07876,-6.93898 9.06005,-10.5 2.98129,-3.56101 5.90906,-6.92457 6.50614,-7.47457 0.59709,-0.55 2.37641,-2.575 3.95405,-4.5 2.60925,-3.18374 11.12293,-12.98377 16.11928,-18.55478 1.1,-1.22652 4.25,-4.83495 7,-8.01875 2.75,-3.18379 5.9,-6.78383 7,-8.00009 1.1,-1.21626 4.475,-5.05687 7.5,-8.5347 19.84045,-22.81047 33.65864,-37.66642 36.63997,-39.39168 l 3.45611,-2 1.95196,2.36078 c 1.07358,1.29844 1.95196,3.49825 1.95196,4.88848 0,2.01953 -12.03154,26.6928 -14.99513,30.75074 -2.39916,3.28508 -13.49492,25.07094 -25.97483,51 -4.23553,8.8 -8.4149,16.58847 -9.2875,17.30771 -0.87259,0.71924 -3.75913,2.12153 -6.41454,3.1162 -2.6554,0.99468 -12.028,4.52488 -20.828,7.84491 -8.8,3.32002 -21.175,7.89896 -27.5,10.17541 -6.325,2.27645 -12.9625,4.78799 -14.75,5.5812 -1.7875,0.79322 -3.25,1.05671 -3.25,0.58555 z m 68,-12.48854 c 0,-0.20765 0.7875,-0.99515 1.75,-1.75 1.58606,-1.24387 1.62143,-1.2085 0.37756,0.37756 C 194.82119,285.91575 194,286.44548 194,285.62244 Z m 86,-5 c 0,-0.20765 0.7875,-0.99515 1.75,-1.75 1.58606,-1.24387 1.62143,-1.2085 0.37756,0.37756 C 280.82119,280.91575 280,281.44548 280,280.62244 Z m -73.49064,-5.63759 c 0.79808,-1.29132 3.96036,-2.60058 21.6329,-8.95658 7.89676,-2.8401 16.60774,-5.99463 19.35774,-7.01008 5.44116,-2.00916 47.20138,-17.1758 62.5,-22.69899 5.225,-1.88635 10.4,-3.84574 11.5,-4.35419 3.81152,-1.76177 22.84938,-8.94884 23.06533,-8.70749 0.11933,0.13336 -4.0838,4.06748 -9.3403,8.74248 -5.25649,4.675 -12.07001,10.79572 -15.14115,13.6016 -3.07113,2.80588 -7.38388,6.63015 -9.58388,8.49838 -2.2,1.86823 -6.025,5.25061 -8.5,7.51639 -2.475,2.26579 -6.29586,5.64152 -8.49079,7.50162 -2.19494,1.86011 -4.86729,4.16951 -5.93856,5.13201 -1.7862,1.60484 -5.25504,1.75 -41.81823,1.75 -26.72238,0 -39.66356,-0.33477 -39.24306,-1.01515 z m 95.22753,-6.71489 c 4.81971,-4.25152 8.98811,-7.96461 9.26311,-8.25131 0.38803,-0.40454 12.32749,-11.20324 21.58056,-19.51865 0.61202,-0.55 3.76926,-3.32633 7.0161,-6.16963 3.24684,-2.84329 7.25334,-6.35565 8.90334,-7.80525 4.67451,-4.10674 6.43068,-4.86933 7.11384,-3.08904 0.3213,0.83728 -1.06888,10.54128 -3.08929,21.56446 -2.0204,11.02317 -3.92791,22.50753 -4.23891,25.52079 L 347.72019,276 h -27.3732 -27.37321 z m 50.9065,5.48004 c 0.20133,-1.2375 1.50469,-9.608 2.89635,-18.6011 4.68649,-30.28467 6.30643,-36.1489 9.98579,-36.1489 2.28009,0 4.09953,0.58522 29.47447,9.48039 11.36578,3.98426 30.3849,9.48841 41.25,11.93777 2.33113,0.52552 2.75,1.13155 2.75,3.97877 0,4.39815 -5.93464,18.4352 -11.98722,28.35307 L 425.0294,276 h -36.37603 -36.37603 z m -143.91288,-7.35282 c -0.33155,-0.33156 -0.15307,-1.79406 0.39662,-3.25 5.62829,-14.90736 37.80309,-77.18452 41.43287,-80.19697 1.02367,-0.84957 4.20667,-0.22945 13.14537,2.56102 25.56668,7.98138 81.28187,26.75895 82.89356,27.93745 3.09926,2.26623 1.63603,3.0594 -22.59893,12.25019 -3.575,1.35578 -9.2,3.53766 -12.5,4.84864 -3.3,1.31098 -10.5,4.01191 -16,6.00208 -17.93364,6.48927 -31.95938,11.66257 -34,12.54066 -1.1,0.47334 -7.85,2.93757 -15,5.47606 -7.15,2.5385 -17.83533,6.37455 -23.74518,8.52457 -10.78403,3.92325 -12.90688,4.42373 -14.02431,3.3063 z m 236.34844,-27.98051 c 0.048,-1.16495 0.28494,-1.4019 0.60416,-0.60417 0.28887,0.72187 0.25335,1.58437 -0.0789,1.91667 -0.33229,0.33229 -0.56864,-0.25834 -0.52522,-1.3125 z M 423.5,232.53044 c -7.15,-1.88592 -19.75,-5.76774 -28,-8.62625 -8.25,-2.85851 -16.9125,-5.85969 -19.25,-6.66928 -4.29155,-1.48638 -5.29177,-3.15194 -3,-4.99562 0.6875,-0.55308 5.975,-2.65126 11.75,-4.66262 16.01368,-5.57737 23.42728,-8.38005 36.2418,-13.70107 12.6292,-5.24408 16.3136,-5.91577 17.14469,-3.1256 1.07609,3.6127 2.11351,19.19722 2.11351,31.75 0,12.25677 -0.11434,13.01313 -2,13.2297 -1.1,0.12633 -7.85,-1.31333 -15,-3.19926 z M 353.81804,209.4847 c -0.28342,-0.28341 -3.17092,-1.1974 -6.41667,-2.03108 -17.3086,-4.44579 -89.66597,-28.74741 -90.17923,-30.2872 -0.29362,-0.88087 15.97247,-1.16386 66.44453,-1.15597 l 66.83333,0.0105 3.28075,10.23954 c 1.80442,5.63175 3.26692,10.5679 3.25,10.96923 C 396.91948,199.86996 367.36416,210 359.77217,210 c -2.99136,0 -5.67072,-0.23188 -5.95413,-0.5153 z m 89.26091,-13.06803 c 0.048,-1.16495 0.28494,-1.4019 0.60416,-0.60417 0.28887,0.72187 0.25335,1.58437 -0.0789,1.91667 -0.33229,0.33229 -0.56864,-0.25834 -0.52522,-1.3125 z m -38.91988,-3.16842 c -0.73751,-0.26154 -3.11185,-4.1369 -5.2763,-8.61189 L 394.9474,176.5 l 21.67305,-0.26991 c 11.92019,-0.14845 21.9077,-0.0353 22.19448,0.25151 0.28678,0.28678 -0.0963,1.67568 -0.85135,3.08645 -2.72663,5.09475 -28.54805,15.54432 -33.80451,13.6802 z M 389.76791,57.275269 c 1.79735,-0.222562 4.49735,-0.217969 6,0.0102 1.50265,0.228174 0.0321,0.41027 -3.26791,0.404657 -3.3,-0.0056 -4.52944,-0.192301 -2.73209,-0.414862 z"/>
    <path style="fill:#3965a3" d="m 81.509682,384.10847 c -4.546441,-0.69327 -5.504288,-2.6495 -2.760093,-5.63699 C 79.7456,377.38717 81.894342,374.7 83.52457,372.5 c 1.630228,-2.2 3.210864,-4.225 3.512523,-4.5 0.579673,-0.52845 8.841168,-10.91859 11.748046,-14.77504 0.943173,-1.25128 2.178531,-2.82628 2.745231,-3.5 2.11149,-2.51025 12.02375,-15.53891 13.46963,-17.70446 0.825,-1.23564 2.7375,-3.83261 4.25,-5.77106 4.19546,-5.37698 3.2268,-11.19037 -2.17859,-13.0747 -5.3381,-1.86087 -4.03428,-4.39002 3.92859,-7.62067 2.475,-1.00414 5.91801,-2.43959 7.65113,-3.18989 1.73312,-0.7503 3.78062,-1.36418 4.55,-1.36418 0.76938,0 1.82637,-0.37175 2.34887,-0.82612 0.5225,-0.45437 2.975,-1.43542 5.45,-2.18013 2.475,-0.7447 5.0625,-1.77805 5.75,-2.29632 0.6875,-0.51828 1.25,-0.67821 1.25,-0.35541 0,0.3228 1.9125,-0.22855 4.25,-1.22522 10.31945,-4.40005 32.87484,-11.39196 33.79174,-10.47506 1.369,1.369 -4.24743,8.4513 -20.17887,25.44545 -1.84958,1.97296 -4.93787,5.49215 -6.86287,7.82044 -7.71765,9.33447 -9.00122,10.76341 -24.3655,27.12511 -7.42601,7.90808 -16.18607,17.52573 -23.77048,26.09754 -12.294793,13.89542 -11.756957,13.495 -18.895514,14.06771 -3.557678,0.28542 -8.264149,0.24514 -10.458824,-0.0895 z M 106.55543,381.25 c 0.982,-1.5125 4.07126,-5.01415 6.86501,-7.78144 2.79376,-2.7673 8.22956,-8.57164 12.07956,-12.89855 3.85,-4.32691 8.575,-9.5086 10.5,-11.51486 1.925,-2.00626 8,-8.52334 13.5,-14.4824 15.04393,-16.29956 17.22963,-18.63842 22.49631,-24.07275 2.66516,-2.75 8.22416,-8.97933 12.35332,-13.84296 8.99484,-10.59477 15.45605,-16.41179 16.09012,-14.48592 1.59067,4.83138 4.89894,18.30122 5.7297,23.32888 0.54528,3.3 1.45278,8.475 2.01667,11.5 0.56388,3.025 1.14524,7.74787 1.29191,10.49526 0.22065,4.13316 -0.0996,5.25368 -1.85568,6.49269 -1.16729,0.8236 -2.34735,1.52472 -2.62235,1.55805 -1.09911,0.13322 -25.31935,7.72824 -40.5,12.70005 -20.79995,6.81218 -22.53316,7.95739 -34.43693,22.75395 -2.4336,3.025 -6.00968,7.1875 -7.94684,9.25 -3.41124,3.63194 -3.73974,3.75 -10.43419,3.75 h -6.91206 z m 99.63546,-15.87338 c -1.25029,-2.23415 4.4508,-12.64631 12.52588,-22.87662 1.3024,-1.65 3.13642,-4.01233 4.07561,-5.24962 0.93919,-1.23729 8.23262,-7.74475 16.20762,-14.46101 7.975,-6.71627 14.9959,-12.67894 15.602,-13.25038 0.60609,-0.57145 3.28273,-2.83899 5.94808,-5.03899 2.66535,-2.2 5.839,-4.9 7.05255,-6 1.21356,-1.1 4.83692,-4.31581 8.05192,-7.14625 3.215,-2.83043 7.00404,-6.20543 8.42008,-7.5 1.41605,-1.29456 4.0903,-3.59125 5.94278,-5.10375 l 3.36815,-2.75 h 26.89284 26.89285 l -0.6269,6.25 c -0.34479,3.4375 -0.83332,7.9375 -1.08562,10 -1.02428,8.37324 -1.35063,11.60368 -1.94471,19.25 -0.34186,4.4 -0.79192,9.35 -1.00012,11 -0.20821,1.65 -0.6785,8.175 -1.0451,14.5 -0.38805,6.69514 -1.16912,12.02897 -1.86943,12.76605 -1.64207,1.72828 -15.09639,-1.0984 -34.59937,-7.26915 -13.92577,-4.40611 -24.38326,-3.75259 -39.5,2.46848 -1.1,0.45269 -4.25,1.60891 -7,2.56937 -2.75,0.96047 -5.45,2.08747 -6,2.50445 -0.55,0.41697 -6.4,2.84431 -13,5.39408 -6.6,2.54976 -12.72794,5.03698 -13.61764,5.52715 -0.88971,0.49016 -3.36471,1.37311 -5.5,1.9621 -2.1353,0.58899 -6.01103,1.72319 -8.61274,2.52045 -4.188,1.28334 -4.82765,1.27574 -5.57873,-0.0664 z m 140.3682,-19.28101 c -0.31972,-0.51732 -0.36839,-3.56297 -0.10816,-6.7681 0.26024,-3.20513 0.73988,-9.42751 1.06587,-13.82751 1.23893,-16.72225 3.02964,-36.54684 3.97443,-44 0.13944,-1.1 0.31095,-2.7875 0.38115,-3.75 0.11904,-1.63235 2.58003,-1.75 36.6073,-1.75 h 36.47969 l -1.95401,3.25 c -1.0747,1.7875 -2.92601,5.05 -4.11401,7.25 -1.18801,2.2 -2.44691,4.225 -2.79756,4.5 -0.35065,0.275 -2.56024,3.48713 -4.9102,7.13807 -5.04824,7.84303 -10.46116,13.68217 -18.68359,20.15475 -3.3,2.59771 -6.54351,5.16953 -7.20779,5.71515 -0.66429,0.54562 -1.67679,0.99203 -2.25,0.99203 -0.57322,0 -1.04221,0.45 -1.04221,1 0,0.55 -0.41775,1 -0.92833,1 -0.82693,0 -4.5468,2.15042 -16.89578,9.76729 -2.02174,1.24701 -4.57589,2.70844 -5.67589,3.24762 -2.0853,1.02212 -4.15495,2.27534 -8.6755,5.25319 -1.51717,0.99941 -2.93682,1.35918 -3.26541,0.82751 z M 215.98264,330.25 c -0.0164,-0.70755 -2.64461,-13.01035 -3.47146,-16.25 -0.21057,-0.825 -1.31641,-6.225 -2.45743,-12 -1.14102,-5.775 -2.53465,-12.75 -3.09695,-15.5 -0.56231,-2.75 -1.12012,-6.125 -1.23959,-7.5 l -0.21721,-2.5 39.9283,-0.26163 c 21.96056,-0.1439 39.73556,-0.0926 39.5,0.11404 -0.23557,0.20663 -4.7033,4.12841 -9.9283,8.71507 -5.225,4.58667 -10.58963,9.26035 -11.9214,10.38596 -1.33177,1.12561 -3.13654,2.72156 -4.01059,3.54656 -0.87406,0.825 -2.93443,2.54909 -4.5786,3.8313 -1.64418,1.28222 -4.56441,3.75722 -6.48941,5.5 -1.925,1.74279 -5.075,4.3596 -7,5.81514 -1.925,1.45554 -4.93237,3.93054 -6.68304,5.5 -9.54522,8.5572 -18.26495,13.60021 -18.33432,10.60356 z M 445.232,234 c 0,-1.925 0.2058,-2.7125 0.45733,-1.75 0.25152,0.9625 0.25152,2.5375 0,3.5 -0.25153,0.9625 -0.45733,0.175 -0.45733,-1.75 z m 0,-8 c 0,-1.925 0.2058,-2.7125 0.45733,-1.75 0.25152,0.9625 0.25152,2.5375 0,3.5 -0.25153,0.9625 -0.45733,0.175 -0.45733,-1.75 z m -85.96297,-15.69299 c 0.97297,-0.25354 2.32297,-0.23687 3,0.0371 0.67703,0.27393 -0.11903,0.48137 -1.76903,0.46099 -1.65,-0.0204 -2.20394,-0.2445 -1.23097,-0.49804 z"/>
    <path style="fill:#1b315a" d="m 53,452.71023 c -1.375,-0.69316 -2.639271,-2.22698 -2.80949,-3.40849 -0.30055,-2.08614 2.115835,-7.43923 5.453209,-12.08066 1.619876,-2.25284 1.607653,-2.26715 -1.067641,-1.25 -3.91384,1.48803 -13.080132,1.26298 -17.108197,-0.42005 C 34.839272,434.45272 34,433.50495 34,431.6348 c 0,-3.42524 7.920192,-14.77725 21.024769,-30.1348 6.101086,-7.15 13.653912,-16.30809 16.784057,-20.35131 3.130146,-4.04322 12.1223,-15.51822 19.982565,-25.5 15.523699,-19.7136 23.561949,-30.91938 24.618609,-34.31973 0.69357,-2.23192 0.42689,-2.59706 -4.71473,-6.45548 -4.35818,-3.27049 -3.48401,-7.54444 2.30473,-11.26828 2.475,-1.59214 5.6559,-4.51714 7.06866,-6.5 11.17145,-15.67952 102.35836,-120.42628 122.92733,-141.2071 11.62992,-11.7497 17.86825,-15.05732 45.37862,-24.06016 11.70664,-3.83103 19.98866,-7.11418 21.80812,-8.64515 1.61344,-1.35762 4.76715,-6.11531 7.00826,-10.57265 7.3019,-14.52276 23.31923,-36.659731 31.06457,-42.933216 6.10704,-4.946515 9.40623,-6.393577 20.95715,-9.192025 8.73276,-2.115691 12.62953,-2.488604 25.78729,-2.467787 17.46118,0.02762 23.46736,1.419501 34.45377,7.98435 7.05739,4.217086 11.84218,10.030571 23.21199,28.202389 6.61979,10.580099 10.15196,15.110459 15.45738,19.825639 6.00693,5.33864 6.87686,6.55072 6.87686,9.5816 0,4.97126 -3.22919,7.77031 -10.64829,9.22993 -3.39255,0.66745 -6.83014,2.02016 -7.76838,3.05691 -2.36447,2.6127 -8.21571,17.82093 -11.19295,29.09207 -3.21576,12.17418 -3.94037,23.45231 -2.47758,38.56223 1.51591,15.65866 1.5291,36.73452 0.0269,42.99707 -3.68245,15.35195 -27.83137,56.30948 -40.08953,67.99343 -8.05838,7.68091 -15.6648,13.00429 -34.02967,23.81581 -8.07371,4.75304 -15.94871,9.70124 -17.5,10.99599 -5.85978,4.89073 -9.18856,5.9401 -16.80165,5.29655 -3.8933,-0.3291 -11.11526,-1.79771 -16.0488,-3.26357 -33.96686,-10.0923 -33.24072,-10.14478 -69.90304,5.05173 -31.76319,13.16581 -41.60504,16.24721 -46.25107,14.48079 -4.58768,-1.74423 -2.45539,-9.09583 6.66329,-22.97339 4.73584,-7.2074 5.84026,-9.53235 4.64336,-9.77494 -1.98545,-0.40242 -27.20711,6.46726 -43.62261,11.88158 -16.74481,5.52294 -25.7451,9.8693 -30.14082,14.55539 -5.1538,5.49424 -16.72757,21.18402 -36.08494,48.91786 C 85.807606,440.71057 77.979381,449.99085 72.008571,452.37989 67.2005,454.3037 56.52881,454.48916 53,452.71023 Z m 19.630662,-5.55764 c 5.555367,-4.02429 11.037607,-10.52233 20.58168,-24.39524 4.558212,-6.62565 10.823098,-15.51386 13.921968,-19.75157 6.7376,-9.21368 8.15615,-11.72679 7.35292,-13.02645 C 114.15433,389.4407 110.34268,389 106.01688,389 h -7.865092 l -12.89645,16.25 C 67.715589,427.35073 55,444.87567 55,446.94866 55,449.6333 55.903324,450 62.516628,450 c 5.209721,0 6.802199,-0.44833 10.114034,-2.84741 z M 55.454406,431.02207 c 2.24722,-1.08786 5.943803,-3.90036 8.214628,-6.25 C 69.489773,418.74931 90,392.0683 90,390.51907 c 0,-1.75076 -3.262889,-2.48919 -11.070694,-2.50542 L 72.358611,388 63.269118,398.25 c -18.75267,21.14693 -26.240638,31.36903 -24.747922,33.7843 1.102679,1.78417 12.573029,1.0985 16.93321,-1.01223 z m 40.117331,-47.01106 c 2.665295,-0.01 4.583883,-1.69728 14.500003,-12.75519 6.28554,-7.0093 17.51079,-19.2718 24.94498,-27.25 7.4342,-7.9782 17.46982,-19.11653 22.30138,-24.75184 4.83157,-5.63531 11.7997,-13.51031 15.48475,-17.5 C 186.43155,286.99859 188.90256,283 184.3922,283 c -1.75526,0 -44.18155,14.89722 -59.55056,20.91009 -5.8621,2.29345 -10.88944,4.77208 -11.17186,5.50806 -0.58323,1.51989 1.11938,3.58185 2.95764,3.58185 1.74251,0 5.37258,4.89442 5.37258,7.24386 0,2.37267 -7.55328,12.7787 -28.980131,39.92542 C 84.194021,371.35118 77.095834,381.175 77.246119,382 c 0.315457,1.73172 6.489498,2.99872 11.753881,2.41205 1.925,-0.21452 4.882282,-0.39499 6.571737,-0.40104 z m 28.033203,-5.27592 c 2.69228,-2.89569 7.75554,-8.79714 11.25167,-13.11432 8.03646,-9.92377 11.45002,-11.57885 46.67489,-22.63065 14.26927,-4.47699 26.51212,-8.61135 27.20632,-9.18749 0.6942,-0.57614 1.2579,-2.67992 1.25267,-4.67507 -0.0199,-7.58322 -7.98395,-45.44437 -9.99313,-47.50729 -1.00141,-1.02819 -9.39152,7.30827 -26.99736,26.82472 -11.99649,13.29837 -40.85981,44.64557 -59.25,64.34885 -4.8125,5.15613 -8.75,9.78683 -8.75,10.29047 0,0.50363 3.08472,0.91569 6.85494,0.91569 h 6.85495 z M 216.5,364.27107 c 2.75,-0.84745 17.375,-6.50936 32.5,-12.58204 26.68523,-10.7141 27.76901,-11.05414 36.57961,-11.47696 8.57594,-0.41155 10.05513,-0.15469 26.66522,4.63041 9.67208,2.78638 19.85138,5.36671 22.62066,5.73406 6.10035,0.80924 5.6568,2.02252 7.15692,-19.57654 2.24393,-32.30843 6.08172,-61.97734 12.64638,-97.7658 1.19369,-6.50762 1.38512,-9.58029 0.64311,-10.3223 -1.38429,-1.38429 -6.62297,2.90318 -37.3119,30.53695 -30.56629,27.52334 -56.77142,50.4189 -77.5,67.71215 -17.02301,14.2018 -26.02081,24.53061 -32.76554,37.61242 -4.42594,8.58438 -3.37995,9.24041 8.76554,5.49765 z M 364.30899,336.84302 C 393.07032,319.84995 401.1459,313.31515 410.76723,299.24877 424.10649,279.74676 440,249.44271 440,243.51082 c 0,-1.96196 -2.09494,-2.81524 -14.56808,-5.9337 -10.46404,-2.61615 -28.43047,-8.34706 -48.79896,-15.56583 -10.39425,-3.68382 -12.04791,-4.02492 -13.32442,-2.7484 -2.62304,2.62304 -10.40505,45.99804 -13.22934,73.73711 -1.20307,11.81601 -4.07869,48.29893 -4.079,51.75 -1.1e-4,1.2375 0.25134,2.25 0.55879,2.25 0.30744,0 8.29494,-4.57064 17.75,-10.15698 z M 241.41028,314.07594 c 19.80852,-16.52673 38.23271,-32.5528 72.49877,-63.06218 14.52497,-12.93257 27.57497,-24.51008 29,-25.7278 1.42502,-1.21772 2.30605,-2.23022 1.95785,-2.25 -0.34821,-0.0198 -8.67321,3.06257 -18.5,6.84967 -15.4302,5.94656 -41.42905,15.46249 -101.8669,37.28464 -7.7,2.78023 -14.77719,5.46459 -15.72708,5.96526 -3.81081,2.00859 -3.79455,3.93625 0.20205,23.95521 4.14192,20.74691 6.85473,32.82469 7.66859,34.14155 0.97527,1.57802 8.85223,-3.87849 24.76672,-17.15635 z m -90.31795,-24.47593 c 28.54755,-10.56165 45.82439,-17.23239 47.60484,-18.38066 0.65845,-0.42465 6.12279,-10.94973 12.14298,-23.38906 9.20667,-19.02345 16.92475,-33.83908 35.79195,-68.70624 1.30234,-2.40678 2.3679,-5.82453 2.3679,-7.59502 0,-4.06179 -2.98962,-6.99943 -6.28226,-6.17303 -2.56645,0.64413 -28.11437,28.9669 -77.28,85.67363 C 132.34933,289.19319 124.1274,299 125.21988,299 c 0.25563,0 11.89823,-4.23 25.87245,-9.39999 z M 256.06314,251.12132 C 279.95341,242.38805 306.7,232.4982 315.5,229.14388 c 34.08137,-12.99089 34.09082,-12.99558 31.45714,-15.59804 -1.31359,-1.29802 -85.15372,-29.34903 -92.51787,-30.95438 -3.90538,-0.85136 -4.42743,-0.2483 -12.9059,14.90854 -7.33725,13.11668 -30.63243,60.08703 -32.31891,65.16499 -1.14067,3.43452 -0.77396,4.33501 1.76535,4.33501 0.90556,0 21.19306,-7.1454 45.08333,-15.87868 z M 440.9918,223.75 c -0.007,-11.10755 -1.21835,-26.91642 -2.48094,-32.3897 -0.27148,-1.17683 -1.10828,-2.37558 -1.85957,-2.66387 -0.75128,-0.2883 -6.26767,1.48224 -12.25863,3.93452 -5.99096,2.45227 -19.66766,7.64061 -30.39266,11.52962 -18.81329,6.82193 -23.91466,9.33198 -22.27363,10.95937 3.2206,3.19383 58.5598,20.47741 66.52363,20.77671 L 441,236 440.992,223.75 Z m -63.51679,-17.69936 c 13.10942,-4.52032 19.52442,-7.58253 19.52637,-9.32096 7.6e-4,-0.67633 -3.17474,-10.90468 -7.05667,-22.72968 -3.88192,-11.825 -7.3791,-22.625 -7.7715,-24 -0.41564,-1.45644 -1.576,-2.62444 -2.77979,-2.79812 -1.13648,-0.16397 -13.72743,2.60498 -27.97988,6.15322 -23.59239,5.87347 -58.13615,14.07682 -83.91354,19.92755 -7.11658,1.61526 -10,2.69468 -10,3.74353 0,1.5833 50.2546,18.88641 83.5,28.74979 20.14129,5.97561 19.94594,5.97414 36.47501,0.27467 z m 42.38245,-16.07706 c 4.2034,-1.63263 9.99314,-4.32189 12.86609,-5.97612 4.81313,-2.77139 5.34905,-3.4591 6.82064,-8.75258 0.87839,-3.15969 3.33385,-11.6485 5.45658,-18.86404 C 449.80451,140.05208 450.61019,136 449.05312,136 c -0.64321,0 -9.58079,1.12743 -19.86129,2.5054 -10.28051,1.37797 -23.28893,2.88509 -28.90762,3.34916 C 389.22586,142.76791 387,143.78886 387,147.94772 c 0,6.32776 10.69283,37.00341 15.01378,43.07163 2.08397,2.92666 2.59985,3.13814 6.23652,2.55662 2.18055,-0.34869 7.40377,-1.96976 11.60716,-3.60239 z M 287.44547,164.43609 c 21.76673,-4.83378 70.3088,-16.40793 81.8592,-19.51813 2.14347,-0.57718 3.6763,-1.27032 3.40629,-1.54033 -0.27,-0.27001 -5.08561,-1.13571 -10.70135,-1.92379 -11.1004,-1.55777 -36.86703,-7.85712 -41.20995,-10.07488 -5.62278,-2.87134 -12.48624,-1.53156 -36.29966,7.08584 -23.52356,8.51251 -31.39789,13.29587 -33.1087,20.11227 -1.39879,5.57321 2.6177,11.42293 7.84312,11.42293 1.73609,0 14.43106,-2.50376 28.21105,-5.56391 z m 85.8163,-28.29645 C 372.96729,133.49453 346.95777,80 345.96617,80 c -2.47185,0 -21.49234,28.18681 -24.96413,36.99482 -2.35805,5.98243 -1.89916,7.50686 3.01432,10.01352 7.30014,3.72426 44.61519,12.61082 48.48364,11.54636 0.55,-0.15134 0.89279,-1.23812 0.76177,-2.41506 z M 419.5,134.95511 c 27.27669,-3.09689 46.71771,-5.95618 49.5,-7.2802 1.5253,-0.72585 2.61628,-2.1855 2.79824,-3.74384 0.24127,-2.06626 -1.01304,-3.71954 -6.56654,-8.65519 -4.22865,-3.7582 -8.90957,-9.30268 -12.18966,-14.43847 C 436.73461,75.30413 432.20102,70 426.68446,70 c -3.04301,0 -3.71689,1.014294 -18.93486,28.5 -11.39015,20.57213 -17.71596,33.67856 -17.73739,36.75 -0.0166,2.38657 6.43879,2.32201 29.48779,-0.29489 z M 383.22846,131.25 C 384.8837,129.36712 418.23324,71.594079 419.25053,68.847199 420.3432,65.896782 417.65506,64.02077 410,62.391372 391.20035,58.389823 356.62044,65.154653 352.77912,73.585431 351.33524,76.754407 352.12687,79.107986 360.6547,97 c 9.07969,19.04985 18.41783,36 19.83305,36 0.66125,0 1.89457,-0.7875 2.74071,-1.75 z"/>
  </g>
</svg>
