<svg xmlns="http://www.w3.org/2000/svg">
   <defs>
    <linearGradient id="gb" gradientUnits="userSpaceOnUse" x1="167" y1="10" x2="167" y2="55">
      <stop style="stop-color:#d37f7f;stop-opacity:1;" offset="0"/>
      <stop style="stop-color:#953131;stop-opacity:1" offset="1"/>
    </linearGradient>
    <linearGradient id="gd" gradientUnits="userSpaceOnUse" x1="144" y1="15" x2="144" y2="60">
      <stop style="stop-color:#9b3232;stop-opacity:1;" offset="0"/>
      <stop style="stop-color:#371616;stop-opacity:1" offset="1"/>
    </linearGradient>
    <linearGradient id="hover_gb" gradientUnits="userSpaceOnUse" x1="144" y1="10" x2="144" y2="55">
      <stop style="stop-color:#d99191;stop-opacity:1;" offset="0"/>
      <stop style="stop-color:#b33a3a;stop-opacity:1" offset="1"/>
    </linearGradient>
    <linearGradient id="hover_gd" gradientUnits="userSpaceOnUse" x1="144" y1="10" x2="144" y2="55">
      <stop style="stop-color:#b73b3b;stop-opacity:1;" offset="0"/>
      <stop style="stop-color:#582020;stop-opacity:1" offset="1"/>
    </linearGradient>
    <linearGradient id="select_gb" gradientUnits="userSpaceOnUse" x1="144" y1="10" x2="144" y2="55">
      <stop style="stop-color:#953131;stop-opacity:1;" offset="0"/>
      <stop style="stop-color:#d37f7f;stop-opacity:1" offset="1"/>
    </linearGradient>
    <linearGradient id="select_gd" gradientUnits="userSpaceOnUse" x1="144" y1="10" x2="144" y2="55">
      <stop style="stop-color:#371616;stop-opacity:1;" offset="0"/>
      <stop style="stop-color:#9b3232;stop-opacity:1" offset="1"/>
    </linearGradient>
  </defs>
  <g id="Bg_Rect">
  <path id="1" style="fill:url(#gd);fill-opacity:1" d="m 8,0 h 269 c 4,0 8,4 8,8 V 73 c 0,4 -4,8 -8,8 H 8 c -4,0 -8,-4 -8,-8 V 8 C 0,4 4,0 8,0 Z"/>
  <path id="2" style="opacity:1;fill:none;fill-opacity:1;stroke:url(#gb);stroke-width:3;stroke-miterlimit:4;stroke-opacity:1" d="m 11,6 h 263 c 3,0 5,2 5,5 v 59 c 0,4 -2,5 -5,5 H 11 c -4,0 -5,-3 -5,-5 v -59 C 6,9 8,6 11,6 Z"/></g>
  <text id="3" style="font-style:normal;font-weight:normal;font-size:40px;line-height:1;font-family:sans-serif;fill:url(#gb);fill-opacity:1" x="143" y="51">
  <tspan id="text" x="143" y="51" style="font-style:normal;font-variant:normal;font-weight:normal;font-stretch:normal;font-size:28px;line-height:1;font-family:'Adobe Heiti Std';text-align:center;text-anchor:middle;opacity:1;fill:#dfcdcd;fill-opacity:1">Cancel</tspan></text>
</svg>