<svg xmlns="http://www.w3.org/2000/svg" viewBox="0 0 500 500">
  <path style="fill:#daf0eb" d="m 51.5,458.54235 c -5.819222,-2.13452 -7.735283,-4.9451 -7.332196,-10.75526 0.293538,-4.23112 0.09946,-4.78891 -1.667804,-4.79329 -7.967979,-0.0197 -14.5,-4.77612 -14.5,-10.55837 0,-6.89786 4.775505,-14.01494 27.543502,-41.04891 5.523925,-6.55893 12.044405,-14.61659 14.489955,-17.90592 2.44555,-3.28933 9.8053,-12.68244 16.355001,-20.87357 6.5497,-8.19113 14.514482,-18.5311 17.699512,-22.97771 l 5.79096,-8.08474 -3.00705,-2.52229 c -2.1793,-1.82798 -3.16162,-3.68699 -3.5686,-6.75342 -0.77558,-5.84374 1.20171,-9.99899 6.29512,-13.22913 2.35444,-1.49315 8.14475,-7.55629 13.00308,-13.61578 28.15288,-35.11334 112.74331,-131.09712 123.67737,-140.3353 7.05485,-5.96064 21.93574,-12.81775 41.22115,-18.99469 8.8,-2.81857 17.05718,-5.66771 18.34928,-6.33143 1.33067,-0.68353 3.87601,-4.25396 5.87044,-8.23465 7.91805,-15.803641 26.06959,-40.736145 33.95541,-46.640292 8.15501,-6.10569 9.46228,-6.700038 21.64688,-9.841706 C 378.14189,52.256103 380.51248,52 395.51596,52 c 14.67703,0 17.2004,0.258911 24.26083,2.489301 9.64997,3.048424 18.17902,8.431262 24.48725,15.454332 2.62022,2.917143 8.69522,11.608151 13.5,19.31335 6.5252,10.464154 10.29333,15.377177 14.88998,19.414097 6.86723,6.03099 9.34778,10.27402 9.34224,15.98005 -0.004,4.28509 -2.81278,9.64512 -5.92742,11.31203 -1.121,0.59994 -4.8464,1.65918 -8.27866,2.35386 l -6.24047,1.26305 -3.33016,8.45997 c -4.50815,11.45254 -8.03275,24.81894 -8.81195,33.41771 -0.35456,3.91265 -0.0649,13.62279 0.64364,21.57808 0.70855,7.95529 1.31144,20.08917 1.33974,26.96417 0.0562,13.66113 -1.35218,20.02113 -7.45397,33.66002 -3.69528,8.25982 -18.92171,33.86732 -26.53316,44.62295 -7.14071,10.09043 -20.10639,20.8453 -37.55045,31.14762 -7.34437,4.33752 -17.81226,10.85258 -23.26198,14.47791 l -9.90858,6.5915 -9.09142,-0.14787 c -6.49641,-0.10566 -11.66034,-0.89518 -18.09142,-2.76602 -4.95,-1.43999 -13.275,-3.76957 -18.5,-5.17684 -15.21069,-4.09678 -16.17789,-3.87095 -60,14.00895 -22.59268,9.21806 -32.6826,12.01361 -38.09772,10.55547 -8.81378,-2.37331 -10.08995,-10.47519 -3.63248,-23.06121 1.95061,-3.80186 3.26782,-6.91248 2.92713,-6.91248 -0.34069,0 -8.28585,2.29894 -17.65591,5.10875 -19.18324,5.7525 -30.17038,9.88777 -35.01155,13.17744 -5.30608,3.60557 -14.41043,15.47536 -40.81598,53.21381 -25.903403,37.02079 -30.013425,40.77338 -45.184327,41.25478 -5.167947,0.16399 -9.454575,-0.26807 -12.029163,-1.21243 z m 20.180345,-5.66839 C 75.960724,451.55084 85.653338,441.03357 95.566514,426.95553 100.0031,420.65499 109.33365,407.4 116.30107,397.5 c 18.16703,-25.81352 25.27605,-34.42188 31.5015,-38.1454 8.16238,-4.88203 63.77867,-22.32752 67.36701,-21.13141 0.57364,0.19122 -1.5268,4.09998 -4.66766,8.68615 -9.83847,14.36576 -12.04231,21.97606 -7.02587,24.2617 3.91206,1.78245 12.33726,-0.82298 43.70852,-13.51651 15.57349,-6.30139 31.17842,-12.01999 34.67763,-12.70798 7.80673,-1.53492 13.04073,-0.69506 32.1378,5.15695 11.21011,3.43516 15.02659,4.15888 22.5,4.26668 l 9,0.12982 8,-5.5984 c 4.4,-3.07913 12.5,-8.20888 18,-11.39946 23.12616,-13.41561 35.00279,-23.31399 43.90009,-36.58785 14.51279,-21.65157 26.33268,-44.40947 29.04049,-55.91429 1.9441,-8.26 1.93779,-13.86259 -0.0434,-38.5 -1.80267,-22.41798 -1.28525,-29.7611 3.18368,-45.18244 3.38979,-11.69745 8.30188,-23.90151 10.37566,-25.77825 0.939,-0.84979 4.37041,-2.03158 7.62535,-2.6262 C 472.98228,131.5612 476,128.98073 476,124.00455 c 0,-3.21703 -0.85443,-4.47141 -7.25,-10.64366 -5.02967,-4.85404 -9.63991,-10.82451 -15.05372,-19.495221 C 439.49709,71.124382 433.55547,65.427115 418.6218,60.2337 c -6.1106,-2.12506 -8.74974,-2.412026 -23.01199,-2.502208 -14.51679,-0.09179 -17.07257,0.160949 -25.84588,2.555893 -11.70808,3.196076 -16.55266,5.554916 -22.3122,10.863875 -8.16652,7.527637 -23.86705,29.71174 -30.79122,43.50653 -1.97603,3.93679 -4.84552,8.01796 -6.37665,9.06927 -1.53112,1.05131 -10.65886,4.50032 -20.28386,7.66446 -22.50059,7.39688 -33.88141,12.78251 -41.21034,19.50154 -4.79877,4.39942 -15.01705,15.39106 -35.88832,38.60445 -27.08436,30.12372 -85.8779,98.84093 -91.76182,107.25016 -1.24981,1.78621 -4.29767,4.64109 -6.77302,6.34418 -2.47534,1.70308 -4.85952,4.06663 -5.29817,5.25233 -0.83137,2.24729 0.58451,6.65582 2.13764,6.65582 0.48672,0 2.00407,1.11913 3.3719,2.48697 2.42633,2.42632 2.44642,2.56652 0.82377,5.75 -2.42191,4.75155 -10.18132,15.28982 -23.387383,31.76303 -6.39331,7.975 -13.616889,17.2 -16.052398,20.5 -2.435509,3.3 -8.710771,11.11068 -13.945028,17.35707 -17.97819,21.45458 -24.043707,29.26245 -26.50374,34.1171 -2.430707,4.79677 -2.438682,4.89615 -0.577276,7.19489 1.737806,2.1461 2.643051,2.33094 11.415744,2.33094 h 9.528266 l -2.006039,3 c -1.103321,1.65 -2.685011,4.52877 -3.514865,6.39727 -1.413258,3.18208 -1.378695,3.5274 0.545666,5.45176 3.36723,3.36723 12.618939,4.0463 20.775758,1.52493 z M 393.8125,142.31689 c 0.72187,-0.28887 1.58438,-0.25335 1.91667,0.0789 0.33229,0.33229 -0.25834,0.56864 -1.3125,0.52522 -1.16495,-0.048 -1.4019,-0.28494 -0.60417,-0.60416 z"/>
  <path style="fill:#fdfdfc" d="m 208.97986,265.99339 c -0.85606,-0.85606 2.96036,-9.56878 13.0866,-29.87612 10.3908,-20.83789 23.2344,-44.91148 26.77526,-50.18661 1.78824,-2.66411 2.29678,-2.96772 4.58802,-2.73919 3.34863,0.33401 23.01451,6.52637 60.36307,19.00703 28.64747,9.57305 34.49244,11.87311 33.64727,13.24063 -0.79334,1.28364 -34.26744,14.5679 -62.59492,24.84092 -8.85756,3.21221 -19.30686,7.06176 -23.22067,8.55456 -6.77133,2.58271 -19.11804,7.04466 -39.6307,14.32205 -8.90875,3.1606 -12.01334,3.83733 -13.01393,2.83673 z"/>
  <path style="fill:#fdfdfc" d="m 377.97517,129.18984 c -5.52021,-8.70569 -23.32512,-44.722008 -24.8416,-50.250356 -1.2607,-4.595886 0.27758,-7.075906 6.24244,-10.064076 8.6092,-4.31288 23.18709,-7.033617 37.45269,-6.98996 13.43302,0.04111 22.09709,2.35905 22.09709,5.91174 0,1.881207 -33.84254,60.858962 -36.37543,63.391862 -1.7593,1.7593 -2.35777,1.4978 -4.57519,-1.99921 z"/>
  <path style="fill:#fdfdfc" d="m 391.77259,136.3513 c -0.72096,-0.18841 -1.30921,-0.90773 -1.30722,-1.59848 0.007,-2.33084 6.57512,-15.84991 16.55406,-34.07157 14.34746,-26.198645 17.09395,-30.479399 19.55531,-30.479399 0.14129,0 -0.0284,3.455011 -0.37719,7.677802 -0.34875,4.22279 -0.43759,18.509481 -0.19743,31.748207 l 0.43666,24.0704 -3.1937,0.46083 c -4.92436,0.71055 -26.83465,2.71937 -28.59458,2.62166 -0.86079,-0.0478 -2.15495,-0.24105 -2.87591,-0.42945 z"/>
  <path style="fill:#daf0eb" d="m 209.44964,263.65052 c 0.50855,-3.13381 26.86062,-56.46038 34.51972,-69.85479 5.72997,-10.02069 7.17536,-11.5119 10.47495,-10.80699 9.51639,2.03305 90.65848,29.54564 92.46448,31.35164 1.02481,1.02481 0.5662,1.40941 -4.43063,3.71561 -16.13063,7.44482 -127.85915,48.39796 -132.03951,48.39796 -1.24971,0 -1.38274,-0.3771 -0.98901,-2.80343 z"/>
  <path style="fill:#daf0eb" d="m 356.2553,209.44185 c -11.68385,-1.9162 -98.37608,-30.61904 -98.37608,-32.57125 0,-0.77972 5.33721,-2.20846 28.08952,-7.51938 13.18335,-3.07731 35.76732,-8.45988 50.18661,-11.96128 14.41928,-3.5014 30.09152,-7.21088 34.82721,-8.24328 8.42604,-1.83693 8.63492,-1.84672 9.76002,-0.45729 1.55959,1.92602 15.99412,47.03495 15.47976,48.37536 -0.59224,1.54336 -8.39753,5.02684 -19.99262,8.92265 -11.40815,3.833 -14.45421,4.3598 -19.97442,3.45447 z"/>
  <path style="fill:#daf0eb" d="m 256.75564,169.11788 c -3.74302,-1.53199 -5.97919,-6.53469 -4.81142,-10.76401 0.98686,-3.57411 5.20684,-7.45949 11.82641,-10.88869 6.66036,-3.45033 28.92423,-11.8616 38.67729,-14.61224 10.23939,-2.88779 12.82891,-3.08472 17.6077,-1.33907 9.65738,3.52776 28.38409,8.06688 42.50387,10.30239 4.63477,0.73381 8.42686,1.57774 8.42686,1.87542 0,1.28796 -107.71712,26.37302 -112.01888,26.08685 -0.39254,-0.0261 -1.38787,-0.32341 -2.21183,-0.66065 z"/>
  <path style="fill:#daf0eb" d="m 363.12128,137.15344 c -14.71582,-2.64697 -36.06942,-8.68992 -40.63617,-11.49981 -3.30365,-2.03272 -3.18483,-4.34148 0.61406,-11.93143 4.94766,-9.88513 20.79796,-32.979345 22.66274,-33.020093 0.64078,-0.014 22.07497,43.207823 25.54803,51.517353 1.08388,2.59325 1.77166,5.03703 1.5284,5.43064 -0.56797,0.91898 -2.35441,0.82768 -9.71706,-0.49666 z"/>
  <path style="fill:#daf0eb" d="m 378.6504,130.35308 c -4.67632,-6.62009 -23.79177,-45.137232 -25.51577,-51.413596 -0.47389,-1.725256 -0.52931,-3.555934 -0.13874,-4.583218 2.60454,-6.850452 22.84361,-12.576955 44.10789,-12.480015 13.2327,0.06032 21.82201,2.407623 21.82201,5.963545 0,1.316129 -19.59987,36.135404 -30.84953,54.804344 -3.10034,5.14506 -6.15578,9.45677 -6.78988,9.58157 -0.63409,0.12481 -1.82028,-0.71787 -2.63598,-1.87263 z"/>
  <path style="fill:#daf0eb" d="m 391.69301,136.37731 c -1.11178,-0.31922 -1.30048,-0.87302 -0.94158,-2.7634 0.6181,-3.25562 9.89279,-21.69273 20.47025,-40.692683 10.47965,-18.824249 13.08843,-22.719376 15.21641,-22.719376 4.76632,0 8.96781,4.581317 21.49271,23.435711 7.20079,10.839738 10.96563,15.689848 16.38854,21.112758 9.99412,9.99412 9.61955,11.96195 -2.69748,14.17133 -21.27765,3.81671 -65.99697,8.58458 -69.92885,7.45566 z"/>
  <path style="fill:#daf0eb" d="m 403.56877,192.08838 c -4.71855,-4.11686 -17.21507,-40.20213 -15.8314,-45.71513 0.6706,-2.67186 2.75285,-3.16161 22.94883,-5.39768 9.26954,-1.02631 21.57275,-2.5007 27.34046,-3.27642 5.76772,-0.77572 10.75929,-1.24806 11.0924,-1.04965 0.3331,0.19842 0.37855,1.42416 0.101,2.72387 -1.32592,6.20889 -11.03079,39.25635 -11.93776,40.65098 -1.97358,3.03475 -21.14557,11.68818 -29.38883,13.2649 -1.8637,0.35647 -2.85536,0.0811 -4.3247,-1.20087 z"/>
  <path style="fill:#daf0eb" d="m 346.26852,345.31109 c 0.002,-2.88314 3.05635,-40.9262 4.13602,-51.51668 2.21715,-21.74789 7.97286,-56.72311 11.40233,-69.28748 1.16691,-4.27515 1.56653,-4.89652 3.27719,-5.09579 1.07152,-0.12482 12.02316,3.15376 24.33697,7.28573 12.31381,4.13197 28.11901,9.05495 35.12266,10.93995 7.09175,1.90872 13.32031,4.00562 14.05735,4.73253 1.26511,1.24772 1.26136,1.48536 -0.0851,5.39165 -1.88929,5.48106 -9.92898,21.41726 -16.61039,32.92497 -12.64838,21.78488 -20.47439,31.20622 -33.72546,40.60038 -6.45942,4.57933 -33.64589,21.19656 -39.47807,24.13026 -2.29231,1.15307 -2.43437,1.14692 -2.43348,-0.10552 z"/>
  <path style="fill:#daf0eb" d="m 426.0418,232.7716 c -22.92481,-5.95619 -53.8707,-16.50419 -53.9144,-18.37689 -0.01,-0.41198 1.5698,-1.53657 3.5098,-2.49908 3.33276,-1.65353 42.53864,-16.72897 54.41183,-20.92243 6.30758,-2.22777 7.64385,-1.88884 8.44936,2.14308 0.97708,4.89074 2.14996,22.68686 2.14996,32.62149 0,9.88385 -0.0204,10.00466 -1.68537,9.97901 -0.92696,-0.0143 -6.74149,-1.33961 -12.92118,-2.94518 z"/>
  <path style="fill:#daf0eb" d="m 205.8326,365.34945 c -0.67762,-1.0964 3.01645,-8.40006 8.06944,-15.95436 5.80798,-8.68303 16.05481,-18.94305 34.23948,-34.28358 17.75522,-14.97824 38.42934,-33.06015 66.29661,-57.98404 33.41247,-29.88339 38.39348,-34.11864 40.12641,-34.11864 1.19378,0 0.7647,4.39984 -1.93575,19.84992 -5.16544,29.55302 -8.22326,53.9905 -10.83416,86.58448 -0.81157,10.13132 -1.70637,19.02206 -1.98847,19.7572 -0.79628,2.07506 -6.51972,1.11767 -25.37337,-4.24434 -16.37112,-4.65597 -16.54304,-4.68679 -26.21689,-4.69975 -11.50403,-0.0154 -8.77664,-0.81445 -43.44512,12.72815 -31.9661,12.48697 -37.73131,14.31773 -38.93818,12.36496 z"/>
  <path style="fill:#daf0eb" d="m 215.94046,327.907 c -1.22059,-4.53295 -6.3533,-29.19543 -8.30515,-39.90597 -2.01739,-11.07024 -1.71495,-13.01155 2.32157,-14.90156 1.43253,-0.67074 22.32343,-8.3734 46.42424,-17.11702 24.1008,-8.74362 53.20168,-19.43049 64.66862,-23.74861 11.46693,-4.31812 21.00456,-7.69554 21.19472,-7.50538 0.19016,0.19016 -12.73115,11.94512 -28.71404,26.12213 -63.53308,56.3546 -91.86129,80.02198 -95.78076,80.02198 -0.55586,0 -1.37,-1.33451 -1.8092,-2.96557 z"/>
  <path style="fill:#daf0eb" d="m 105.8213,382.70096 c 0,-0.33295 4.80331,-5.83852 10.67402,-12.2346 75.66127,-82.43217 81.16374,-88.28228 83.03619,-88.28228 1.25725,0 7.04838,24.85585 9.19203,39.45266 1.82539,12.42975 4.70554,10.29464 -29.15201,21.61094 -36.45024,12.18286 -36.7369,12.32634 -45.44981,22.74742 -2.96598,3.54748 -7.57012,8.89375 -10.2314,11.8806 l -4.83871,5.43064 h -6.61515 c -3.63834,0 -6.61516,-0.27242 -6.61516,-0.60538 z"/>
  <path style="fill:#daf0eb" d="m 129.14789,293.98167 c 9.12162,-11.06572 51.65469,-60.20462 76.94778,-88.89856 17.27259,-19.59502 34.43631,-38.13692 36.15251,-39.0554 3.40901,-1.82445 7.11728,2.37784 6.23735,7.06829 -0.2558,1.36356 -5.84283,12.56189 -12.41561,24.88517 -6.57278,12.32328 -17.52656,33.59409 -24.34174,47.26846 -6.81518,13.67437 -12.78646,25.17597 -13.26951,25.55911 -1.83627,1.45647 -69.71537,27.10546 -71.73359,27.10546 -0.45035,0 0.63991,-1.76963 2.42281,-3.93253 z"/>
  <path style="fill:#daf0eb" d="m 79.355985,383.11519 -2.121071,-0.9402 4.778386,-6.7511 c 2.628112,-3.7131 8.995706,-12.13821 14.150209,-18.72246 19.084121,-24.37764 26.136981,-34.25114 26.136981,-36.5899 0,-2.25371 -3.00138,-6.19562 -5.58471,-7.33479 -4.00752,-1.76718 -3.37024,-3.39619 2.3424,-5.98766 10.38478,-4.71094 62.24125,-23.1069 65.13614,-23.1069 0.97666,0 1.77574,0.35496 1.77574,0.7888 0,1.45315 -3.54271,6.02433 -11.77907,15.19863 -4.49622,5.00823 -12.32914,13.82491 -17.4065,19.59263 -16.55438,18.80523 -56.2157,61.76833 -58.259698,63.10978 -2.541068,1.66766 -15.913602,2.18611 -19.168807,0.74317 z"/>
  <path style="fill:#daf0eb" d="m 39.249534,432.1233 c -2.242688,-1.53933 4.914264,-11.50129 23.411705,-32.58741 l 9.746859,-11.11091 8.031995,0.24963 c 4.417598,0.1373 8.307736,0.52624 8.644751,0.86432 0.906456,0.90931 -1.345259,4.34022 -11.727584,17.86916 -11.310964,14.73902 -17.346387,21.06435 -22.109156,23.17115 -3.897722,1.72414 -14.276789,2.72586 -15.99857,1.54406 z"/>
  <path style="fill:#daf0eb" d="m 58.069125,449.46063 c -1.926403,-0.26309 -2.434425,-0.68405 -2.434425,-2.01722 0,-2.83631 10.834124,-17.85961 33.201453,-46.03928 l 9.714489,-12.23888 7.319758,0.25402 c 4.02587,0.13972 7.57043,0.50541 7.87681,0.81265 0.97562,0.97839 -0.97267,4.13391 -13.71375,22.21137 -18.523153,26.28121 -22.135699,30.70809 -28.374112,34.77015 -3.003164,1.95546 -8.758325,2.9071 -13.590223,2.24719 z"/>
</svg>
