<svg xmlns="http://www.w3.org/2000/svg" viewBox="0 -50 500 500" width="250" height="250">
  <path d="m 29,404.68392 c -1.375,-0.69316 -2.639271,-2.22698 -2.80949,-3.40849 -0.30055,-2.08614 2.115835,-7.43923 5.453209,-12.08066 1.619876,-2.25284 1.607653,-2.26715 -1.067641,-1.25 -3.91384,1.48803 -13.080132,1.26298 -17.108197,-0.42005 C 10.839272,386.42641 10,385.47864 10,383.60849 c 0,-3.42524 7.920192,-14.77725 21.024769,-30.1348 6.101086,-7.15 13.653912,-16.30809 16.784057,-20.35131 3.130146,-4.04322 12.1223,-15.51822 19.982565,-25.5 C 83.31509,287.90878 91.35334,276.703 92.41,273.30265 c 0.69357,-2.23192 0.42689,-2.59706 -4.71473,-6.45548 -4.35818,-3.27049 -3.48401,-7.54444 2.30473,-11.26828 2.475,-1.59214 5.6559,-4.51714 7.06866,-6.5 11.17145,-15.67952 102.35836,-120.42628 122.92733,-141.2071 11.62992,-11.7497 17.86825,-15.05732 45.37862,-24.06016 11.70664,-3.83103 19.98866,-7.11418 21.80812,-8.64515 1.61344,-1.35762 4.76715,-6.11531 7.00826,-10.57265 7.3019,-14.52276 23.31923,-36.659731 31.06457,-42.933216 6.10704,-4.946515 9.40623,-6.393577 20.95715,-9.192025 8.73276,-2.115691 12.62953,-2.4886038 25.78729,-2.467787 17.46118,0.02762 23.46736,1.419501 34.45377,7.98435 7.05739,4.217086 11.84218,10.030571 23.21199,28.202389 6.61979,10.580099 10.15196,15.110459 15.45738,19.825639 6.00693,5.33864 6.87686,6.55072 6.87686,9.5816 0,4.97126 -3.22919,7.77031 -10.64829,9.22993 -3.39255,0.66745 -6.83014,2.02016 -7.76838,3.05691 -2.36447,2.6127 -8.21571,17.82093 -11.19295,29.09207 -3.21576,12.17418 -3.94037,23.45231 -2.47758,38.56223 1.51591,15.65866 1.5291,36.73452 0.0269,42.99707 -3.68245,15.35195 -27.83137,56.30948 -40.08953,67.99343 -8.05838,7.68091 -15.6648,13.00429 -34.02967,23.81581 -8.07371,4.75304 -15.94871,9.70124 -17.5,10.99599 -5.85978,4.89073 -9.18856,5.9401 -16.80165,5.29655 -3.8933,-0.3291 -11.11526,-1.79771 -16.0488,-3.26357 -33.96686,-10.0923 -33.24072,-10.14478 -69.90304,5.05173 -31.76319,13.16581 -41.60504,16.24721 -46.25107,14.48079 -4.58768,-1.74423 -2.45539,-9.09583 6.66329,-22.97339 4.73584,-7.2074 5.84026,-9.53235 4.64336,-9.77494 -1.98545,-0.40242 -27.20711,6.46726 -43.62261,11.88158 -16.74481,5.52294 -25.7451,9.8693 -30.14082,14.55539 -5.1538,5.49424 -16.72757,21.18402 -36.08494,48.91786 C 61.807606,392.68426 53.979381,401.96454 48.008571,404.35358 43.2005,406.27739 32.52881,406.46285 29,404.68392 Z m 19.630662,-5.55764 c 5.555367,-4.02429 11.037607,-10.52233 20.58168,-24.39524 4.558212,-6.62565 10.823098,-15.51386 13.921968,-19.75157 6.7376,-9.21368 8.15615,-11.72679 7.35292,-13.02645 -0.3329,-0.53863 -4.14455,-0.97933 -8.47035,-0.97933 h -7.865092 l -12.89645,16.25 C 43.715589,379.32442 31,396.84936 31,398.92235 c 0,2.68464 0.903324,3.05134 7.516628,3.05134 5.209721,0 6.802199,-0.44833 10.114034,-2.84741 z M 31.454406,382.99576 c 2.24722,-1.08786 5.943803,-3.90036 8.214628,-6.25 C 45.489773,370.723 66,344.04199 66,342.49276 66,340.742 62.737111,340.00357 54.929306,339.98734 l -6.570695,-0.0137 -9.089493,10.25 c -18.75267,21.14693 -26.240638,31.36903 -24.747922,33.7843 1.102679,1.78417 12.573029,1.0985 16.93321,-1.01223 z M 71.571737,335.9847 c 2.665295,-0.01 4.583883,-1.69728 14.500003,-12.75519 6.28554,-7.0093 17.51079,-19.2718 24.94498,-27.25 7.4342,-7.9782 17.46982,-19.11653 22.30138,-24.75184 4.83157,-5.63531 11.7997,-13.51031 15.48475,-17.5 13.6287,-14.75539 16.09971,-18.75398 11.58935,-18.75398 -1.75526,0 -44.18155,14.89722 -59.55056,20.91009 -5.8621,2.29345 -10.88944,4.77208 -11.17186,5.50806 -0.58323,1.51989 1.11938,3.58185 2.95764,3.58185 1.74251,0 5.37258,4.89442 5.37258,7.24386 0,2.37267 -7.55328,12.7787 -28.980131,39.92542 -8.825848,11.1819 -15.924035,21.00572 -15.77375,21.83072 0.315457,1.73172 6.489498,2.99872 11.753881,2.41205 1.925,-0.21452 4.882282,-0.39499 6.571737,-0.40104 z m 28.033203,-5.27592 c 2.69228,-2.89569 7.75554,-8.79714 11.25167,-13.11432 8.03646,-9.92377 11.45002,-11.57885 46.67489,-22.63065 14.26927,-4.47699 26.51212,-8.61135 27.20632,-9.18749 0.6942,-0.57614 1.2579,-2.67992 1.25267,-4.67507 -0.0199,-7.58322 -7.98395,-45.44437 -9.99313,-47.50729 -1.00141,-1.02819 -9.39152,7.30827 -26.99736,26.82472 -11.99649,13.29837 -40.85981,44.64557 -59.25,64.34885 -4.8125,5.15613 -8.75,9.78683 -8.75,10.29047 0,0.50363 3.08472,0.91569 6.85494,0.91569 h 6.85495 z M 192.5,316.24476 c 2.75,-0.84745 17.375,-6.50936 32.5,-12.58204 26.68523,-10.7141 27.76901,-11.05414 36.57961,-11.47696 8.57594,-0.41155 10.05513,-0.15469 26.66522,4.63041 9.67208,2.78638 19.85138,5.36671 22.62066,5.73406 6.10035,0.80924 5.6568,2.02252 7.15692,-19.57654 2.24393,-32.30843 6.08172,-61.97734 12.64638,-97.7658 1.19369,-6.50762 1.38512,-9.58029 0.64311,-10.3223 -1.38429,-1.38429 -6.62297,2.90318 -37.3119,30.53695 -30.56629,27.52334 -56.77142,50.4189 -77.5,67.71215 -17.02301,14.2018 -26.02081,24.53061 -32.76554,37.61242 -4.42594,8.58438 -3.37995,9.24041 8.76554,5.49765 z M 340.30899,288.81671 C 369.07032,271.82364 377.1459,265.28884 386.76723,251.22246 400.10649,231.72045 416,201.4164 416,195.48451 c 0,-1.96196 -2.09494,-2.81524 -14.56808,-5.9337 -10.46404,-2.61615 -28.43047,-8.34706 -48.79896,-15.56583 -10.39425,-3.68382 -12.04791,-4.02492 -13.32442,-2.7484 -2.62304,2.62304 -10.40505,45.99804 -13.22934,73.73711 -1.20307,11.81601 -4.07869,48.29893 -4.079,51.75 -1.1e-4,1.2375 0.25134,2.25 0.55879,2.25 0.30744,0 8.29494,-4.57064 17.75,-10.15698 z M 217.41028,266.04963 c 19.80852,-16.52673 38.23271,-32.5528 72.49877,-63.06218 14.52497,-12.93257 27.57497,-24.51008 29,-25.7278 1.42502,-1.21772 2.30605,-2.23022 1.95785,-2.25 -0.34821,-0.0198 -8.67321,3.06257 -18.5,6.84967 -15.4302,5.94656 -41.42905,15.46249 -101.8669,37.28464 -7.7,2.78023 -14.77719,5.46459 -15.72708,5.96526 -3.81081,2.00859 -3.79455,3.93625 0.20205,23.95521 4.14192,20.74691 6.85473,32.82469 7.66859,34.14155 0.97527,1.57802 8.85223,-3.87849 24.76672,-17.15635 z M 127.09233,241.5737 c 28.54755,-10.56165 45.82439,-17.23239 47.60484,-18.38066 0.65845,-0.42465 6.12279,-10.94973 12.14298,-23.38906 9.20667,-19.02345 16.92475,-33.83908 35.79195,-68.70624 1.30234,-2.40678 2.3679,-5.82453 2.3679,-7.59502 0,-4.06179 -2.98962,-6.99943 -6.28226,-6.17303 -2.56645,0.64413 -28.11437,28.9669 -77.28,85.67363 -33.08841,38.16356 -41.31034,47.97037 -40.21786,47.97037 0.25563,0 11.89823,-4.23 25.87245,-9.39999 z M 232.06314,203.09501 C 255.95341,194.36174 282.7,184.47189 291.5,181.11757 c 34.08137,-12.99089 34.09082,-12.99558 31.45714,-15.59804 -1.31359,-1.29802 -85.15372,-29.34903 -92.51787,-30.95438 -3.90538,-0.85136 -4.42743,-0.2483 -12.9059,14.90854 -7.33725,13.11668 -30.63243,60.08703 -32.31891,65.16499 -1.14067,3.43452 -0.77396,4.33501 1.76535,4.33501 0.90556,0 21.19306,-7.1454 45.08333,-15.87868 z M 416.9918,175.72369 c -0.007,-11.10755 -1.21835,-26.91642 -2.48094,-32.3897 -0.27148,-1.17683 -1.10828,-2.37558 -1.85957,-2.66387 -0.75128,-0.2883 -6.26767,1.48224 -12.25863,3.93452 -5.99096,2.45227 -19.66766,7.64061 -30.39266,11.52962 -18.81329,6.82193 -23.91466,9.33198 -22.27363,10.95937 3.2206,3.19383 58.5598,20.47741 66.52363,20.77671 l 2.75,0.10335 -0.008,-12.25 z m -63.51679,-17.69936 c 13.10942,-4.52032 19.52442,-7.58253 19.52637,-9.32096 7.6e-4,-0.67633 -3.17474,-10.90468 -7.05667,-22.72968 -3.88192,-11.825 -7.3791,-22.625 -7.7715,-24 -0.41564,-1.45644 -1.576,-2.62444 -2.77979,-2.79812 -1.13648,-0.16397 -13.72743,2.60498 -27.97988,6.15322 -23.59239,5.87347 -58.13615,14.07682 -83.91354,19.92755 -7.11658,1.61526 -10,2.69468 -10,3.74353 0,1.5833 50.2546,18.88641 83.5,28.74979 20.14129,5.97561 19.94594,5.97414 36.47501,0.27467 z m 42.38245,-16.07706 c 4.2034,-1.63263 9.99314,-4.32189 12.86609,-5.97612 4.81313,-2.77139 5.34905,-3.4591 6.82064,-8.75258 0.87839,-3.15969 3.33385,-11.6485 5.45658,-18.86404 4.80374,-16.32876 5.60942,-20.38084 4.05235,-20.38084 -0.64321,0 -9.58079,1.12743 -19.86129,2.5054 -10.28051,1.37797 -23.28893,2.88509 -28.90762,3.34916 C 365.22586,94.7416 363,95.76255 363,99.92141 c 0,6.32776 10.69283,37.00341 15.01378,43.07163 2.08397,2.92666 2.59985,3.13814 6.23652,2.55662 2.18055,-0.34869 7.40377,-1.96976 11.60716,-3.60239 z M 263.44547,116.40978 c 21.76673,-4.83378 70.3088,-16.40793 81.8592,-19.51813 2.14347,-0.57718 3.6763,-1.27032 3.40629,-1.54033 -0.27,-0.27001 -5.08561,-1.13571 -10.70135,-1.92379 -11.1004,-1.55777 -36.86703,-7.85712 -41.20995,-10.07488 -5.62278,-2.87134 -12.48624,-1.53156 -36.29966,7.08584 -23.52356,8.51251 -31.39789,13.29587 -33.1087,20.11227 -1.39879,5.57321 2.6177,11.42293 7.84312,11.42293 1.73609,0 14.43106,-2.50376 28.21105,-5.56391 z m 85.8163,-28.29645 c -0.29448,-2.64511 -26.304,-56.13964 -27.2956,-56.13964 -2.47185,0 -21.49234,28.18681 -24.96413,36.99482 -2.35805,5.98243 -1.89916,7.50686 3.01432,10.01352 7.30014,3.72426 44.61519,12.61082 48.48364,11.54636 0.55,-0.15134 0.89279,-1.23812 0.76177,-2.41506 z M 395.5,86.9288 c 27.27669,-3.09689 46.71771,-5.95618 49.5,-7.2802 1.5253,-0.72585 2.61628,-2.1855 2.79824,-3.74384 0.24127,-2.06626 -1.01304,-3.71954 -6.56654,-8.65519 -4.22865,-3.7582 -8.90957,-9.30268 -12.18966,-14.43847 -16.30743,-25.53328 -20.84102,-30.83741 -26.35758,-30.83741 -3.04301,0 -3.71689,1.014294 -18.93486,28.5 -11.39015,20.57213 -17.71596,33.67856 -17.73739,36.75 -0.0166,2.38657 6.43879,2.32201 29.48779,-0.29489 z M 359.22846,83.22369 C 360.8837,81.34081 394.23324,23.567769 395.25053,20.820889 396.3432,17.870472 393.65506,15.99446 386,14.365062 c -18.79965,-4.001549 -53.37956,2.763281 -57.22088,11.194059 -1.44388,3.168976 -0.65225,5.522555 7.87558,23.414569 9.07969,19.04985 18.41783,36 19.83305,36 0.66125,0 1.89457,-0.7875 2.74071,-1.75 z" style="fill:#daf0eb;fill-opacity:1" />
</svg>
